# xmcd
#
# Track frame offsets:
#	150
#	13342
#	25052
#	36620
#	49042
#	61670
#	73235
#	86515
#	99007
#	112700
#
# Disc length: 1675 seconds
#
# Revision: 1
# Processed by: cddbd v1.4PL0 Copyright (c) Steve Scherf et al.
# Submitted via: audiograbber 1.82.01
#
DISCID=7706890a
DTITLE=Roy Rogers and Sons of Pioneers - Double Barrel Country
DYEAR=1900
DGENRE=
TTITLE0=Roy Rogers - Happy Trails
TTITLE1=Roy Rogers - Stampede
TTITLE2=Roy Rogers - The Yellow Rose of Texas
TTITLE3=Roy Rogers - Home on the Range
TTITLE4=Roy Rogers - Don't Fence Me In
TTITLE5=Sons of Pioneers - Stars and Stripes on Iwo Jima
TTITLE6=Sons of Pioneers - Baby Doll
TTITLE7=Sons of Pioneers - No One To Cry To
TTITLE8=Sons of Pioneers - Room Full of Roses
TTITLE9=Sons of Pioneers - Cool Waters
EXTD=
EXTT0=
EXTT1=
EXTT2=
EXTT3=
EXTT4=
EXTT5=
EXTT6=
EXTT7=
EXTT8=
EXTT9=
PLAYORDER=
